<svg width="20" height="20" viewBox="0 0 20 20" fill="none" xmlns="http://www.w3.org/2000/svg">
<mask id="mask0_2_5704" style="mask-type:luminance" maskUnits="userSpaceOnUse" x="11" y="1" width="9" height="8">
<path fill-rule="evenodd" clip-rule="evenodd" d="M11.9617 1.66699H19.0775V8.77767H11.9617V1.66699Z" fill="white"/>
</mask>
<g mask="url(#mask0_2_5704)">
<path fill-rule="evenodd" clip-rule="evenodd" d="M18.4523 8.77767C18.1381 8.77767 17.8681 8.54184 17.8323 8.22267C17.5164 5.40934 15.3314 3.226 12.5173 2.9135C12.1748 2.87517 11.9273 2.56684 11.9656 2.2235C12.0031 1.881 12.3089 1.6285 12.6556 1.67184C16.0539 2.04934 18.6931 4.68517 19.0739 8.08267C19.1123 8.426 18.8656 8.73517 18.5231 8.7735C18.4998 8.776 18.4756 8.77767 18.4523 8.77767Z" fill="white"/>
</g>
<path fill-rule="evenodd" clip-rule="evenodd" d="M15.5021 8.78647C15.2088 8.78647 14.948 8.5798 14.8896 8.28147C14.6496 7.04814 13.6988 6.0973 12.4671 5.85813C12.128 5.7923 11.9071 5.4648 11.973 5.12563C12.0388 4.78647 12.3721 4.5648 12.7055 4.63147C14.4396 4.96813 15.7788 6.30647 16.1163 8.04147C16.1821 8.38147 15.9613 8.70897 15.623 8.7748C15.5821 8.7823 15.5421 8.78647 15.5021 8.78647Z" fill="white"/>
<mask id="mask1_2_5704" style="mask-type:luminance" maskUnits="userSpaceOnUse" x="1" y="1" width="18" height="18">
<path fill-rule="evenodd" clip-rule="evenodd" d="M1.66699 1.6665H18.7505V18.7503H1.66699V1.6665Z" fill="white"/>
</mask>
<g mask="url(#mask1_2_5704)">
<path fill-rule="evenodd" clip-rule="evenodd" d="M3.6329 4.21779C3.63456 4.21779 3.5929 4.26112 3.5404 4.31279C3.33873 4.50862 2.92123 4.91612 2.91706 5.76862C2.9104 6.96112 3.69456 9.17529 7.4704 12.9503C11.2279 16.707 13.4387 17.5003 14.6346 17.5003H14.6521C15.5046 17.4953 15.9112 17.0778 16.1071 16.877C16.1662 16.8161 16.2146 16.7703 16.2487 16.7428C17.0796 15.907 17.5046 15.2861 17.5004 14.887C17.4954 14.4803 16.9896 14.0003 16.2904 13.3345C16.0679 13.1236 15.8262 12.8928 15.5712 12.6378C14.9096 11.9786 14.5837 12.0911 13.8629 12.3445C12.8671 12.6936 11.5029 13.172 9.37706 11.0445C7.2504 8.91862 7.72706 7.55445 8.07456 6.55779C8.32623 5.83779 8.44123 5.51029 7.7804 4.84862C7.52206 4.59029 7.28956 4.34529 7.0754 4.12029C6.41373 3.42529 5.93623 2.92279 5.53206 2.91695H5.5254C5.12623 2.91695 4.50623 3.34362 3.62873 4.22112C3.63123 4.21862 3.63206 4.21779 3.6329 4.21779ZM14.6346 18.7503C12.5579 18.7503 9.8504 17.097 6.58706 13.8345C3.3104 10.5586 1.65456 7.84279 1.66706 5.76195C1.67456 4.38695 2.3954 3.68279 2.66623 3.41862C2.6804 3.40112 2.72873 3.35362 2.7454 3.33695C3.94123 2.14112 4.7629 1.64945 5.5479 1.66695C6.47873 1.67945 7.14206 2.37695 7.98123 3.25945C8.18873 3.47695 8.4129 3.71445 8.66373 3.96445C9.87956 5.18112 9.53373 6.17362 9.25456 6.97029C8.95123 7.83945 8.68873 8.58945 10.2604 10.1611C11.8321 11.7328 12.5812 11.4703 13.4496 11.1645C14.2471 10.8861 15.2371 10.5378 16.4554 11.7545C16.7029 12.002 16.9362 12.2236 17.1529 12.4295C18.0387 13.2728 18.7387 13.9386 18.7504 14.872C18.7596 15.667 18.2762 16.4786 17.0829 17.672L16.5546 17.3136L17.0021 17.7495C16.7379 18.0203 16.0354 18.742 14.6596 18.7503H14.6346Z" fill="white"/>
</g>
</svg>
