<svg width="21" height="20" viewBox="0 0 21 20" fill="none" xmlns="http://www.w3.org/2000/svg">
<path fill-rule="evenodd" clip-rule="evenodd" d="M10.7088 7.08301C9.90459 7.08301 9.25042 7.73717 9.25042 8.54217C9.25042 9.34634 9.90459 9.99967 10.7088 9.99967C11.5129 9.99967 12.1671 9.34634 12.1671 8.54217C12.1671 7.73717 11.5129 7.08301 10.7088 7.08301ZM10.7088 11.2497C9.21542 11.2497 8.00042 10.0355 8.00042 8.54217C8.00042 7.04801 9.21542 5.83301 10.7088 5.83301C12.2021 5.83301 13.4171 7.04801 13.4171 8.54217C13.4171 10.0355 12.2021 11.2497 10.7088 11.2497Z" fill="#2F80ED"/>
<mask id="mask0_2_5602" style="mask-type:luminance" maskUnits="userSpaceOnUse" x="3" y="1" width="15" height="17">
<path fill-rule="evenodd" clip-rule="evenodd" d="M3.83334 1.6665H17.5829V17.9165H3.83334V1.6665Z" fill="white"/>
</mask>
<g mask="url(#mask0_2_5602)">
<path fill-rule="evenodd" clip-rule="evenodd" d="M10.7079 2.9165C7.60625 2.9165 5.08292 5.464 5.08292 8.594C5.08292 12.5765 9.76958 16.4565 10.7079 16.6632C11.6462 16.4557 16.3329 12.5757 16.3329 8.594C16.3329 5.464 13.8096 2.9165 10.7079 2.9165ZM10.7079 17.9165C9.21292 17.9165 3.83292 13.2898 3.83292 8.594C3.83292 4.774 6.91708 1.6665 10.7079 1.6665C14.4987 1.6665 17.5829 4.774 17.5829 8.594C17.5829 13.2898 12.2029 17.9165 10.7079 17.9165Z" fill="#2F80ED"/>
</g>
</svg>
