<svg width="131" height="144" viewBox="0 0 131 144" fill="none" xmlns="http://www.w3.org/2000/svg">
<g id="logo 1" clip-path="url(#clip0_2_11992)">
<path id="Vector" d="M65.1709 0L0 65.7858L6.1482 71.934L0 78.0822L65.1709 143.868L130.342 78.0822L124.194 71.934L130.342 65.7858L65.1709 0Z" fill="#0074B8"/>
<path id="Vector_2" d="M3.81152 78.0822L65.1706 16.3542L126.284 78.0822L65.1706 139.933L3.81152 78.0822Z" fill="#0074B8"/>
<path id="Vector_3" d="M65.1711 140.794L3.07422 78.0822L65.1711 15.3705L127.268 78.0822L65.1711 140.794ZM4.79572 78.0822L65.1711 138.949L125.423 78.0822L65.1711 17.215L4.79572 78.0822Z" fill="#FEFEFE"/>
<path id="Vector_4" d="M3.81152 65.7858L65.1706 4.05782L126.284 65.7858L65.1706 127.637L3.81152 65.7858Z" fill="#0074B8"/>
<path id="Vector_5" d="M65.1711 128.497L3.07422 65.7858L65.1711 3.0741L127.268 65.7858L65.1711 128.497ZM4.79572 65.7858L65.1711 126.653L125.423 65.7858L65.1711 4.91857L4.79572 65.7858Z" fill="#FEFEFE"/>
<path id="Vector_6" d="M15.7393 66.1547L65.1708 16.3542L114.479 66.1547L65.1708 115.832L15.7393 66.1547Z" fill="#0074B8"/>
<path id="Vector_7" d="M65.1713 116.693L15.002 66.1547L65.1713 15.3705L115.341 66.1547L65.1713 116.693ZM16.7235 66.1547L65.1713 114.971L113.619 66.1547L65.1713 17.215L16.7235 66.1547Z" fill="#FEFEFE"/>
<path id="Vector_8" d="M109.684 50.9071H20.5352V80.1726H109.684V50.9071Z" fill="#FEFEFE"/>
<g id="Group">
<path id="Vector_9" d="M36.8902 78.2051L44.2681 53.1205H36.3984C36.3984 53.1205 33.8161 63.9413 33.5702 65.9087H33.4472C33.2013 63.9413 30.865 53.1205 30.865 53.1205H23.2412L29.3894 78.2051H36.8902Z" fill="#0074B8"/>
<path id="Vector_10" d="M46.9727 78.2051H60.6217V72.3029H54.3505V68.368H59.1461V62.3428H54.3505V58.8998H60.6217V52.9975H46.9727V78.2051Z" fill="#0074B8"/>
<path id="Vector_11" fill-rule="evenodd" clip-rule="evenodd" d="M85.0921 78.2051L78.575 65.1709L84.3543 52.9975H76.7306L72.6728 61.9739H72.5498H72.6728H72.5498H72.6728V52.9975H65.2949V78.2051H72.6728V68.368H72.7957H72.6728L77.2224 78.2051H85.0921Z" fill="#0074B8"/>
<path id="Vector_12" fill-rule="evenodd" clip-rule="evenodd" d="M95.0525 68.6139L96.0362 63.6954C96.2821 62.2198 96.528 60.6213 96.651 58.8998H96.774C97.0199 60.4983 97.0199 62.0968 97.3888 63.6954L98.1266 68.6139H95.0525ZM107.103 78.2051L101.324 53.1205H92.4702L85.9531 78.2051H93.5769L94.1917 75.0081H99.1103L99.7251 78.2051H107.103Z" fill="#0074B8"/>
</g>
</g>
<defs>
<clipPath id="clip0_2_11992">
<rect width="130.342" height="143.868" fill="white"/>
</clipPath>
</defs>
</svg>
