<svg width="24" height="25" viewBox="0 0 24 25" fill="none" xmlns="http://www.w3.org/2000/svg">
<path d="M21 6.11032C21 6.53068 20.6922 6.87808 20.2928 6.93306L20.1818 6.94064L3.81818 6.94064C3.36631 6.94064 3 6.56889 3 6.11032C3 5.68996 3.3078 5.34256 3.70716 5.28758L3.81818 5.28L20.1818 5.28C20.6337 5.28 21 5.65175 21 6.11032Z" fill="#130F26"/>
<path d="M21 12.1103C21 12.5307 20.6922 12.8781 20.2928 12.9331L20.1818 12.9406L3.81818 12.9406C3.36631 12.9406 3 12.5689 3 12.1103C3 11.69 3.3078 11.3426 3.70716 11.2876L3.81818 11.28L20.1818 11.28C20.6337 11.28 21 11.6517 21 12.1103Z" fill="#130F26"/>
<path d="M21 18.1103C21 18.5307 20.6922 18.8781 20.2928 18.9331L20.1818 18.9406L3.81818 18.9406C3.36631 18.9406 3 18.5689 3 18.1103C3 17.69 3.3078 17.3426 3.70716 17.2876L3.81818 17.28L20.1818 17.28C20.6337 17.28 21 17.6517 21 18.1103Z" fill="#130F26"/>
</svg>
