<svg width="21" height="20" viewBox="0 0 21 20" fill="none" xmlns="http://www.w3.org/2000/svg">
<g id="Iconly/Light-Outline/Message">
<g id="Message">
<path id="Fill 1" fill-rule="evenodd" clip-rule="evenodd" d="M10.3141 11.2207C9.75658 11.2207 9.20075 11.0366 8.73575 10.6682L4.99825 7.65491C4.72908 7.43824 4.68742 7.04408 4.90325 6.77574C5.12075 6.50824 5.51408 6.46574 5.78242 6.68158L9.51658 9.69158C9.98575 10.0632 10.6466 10.0632 11.1191 9.68824L14.8157 6.68324C15.0841 6.46408 15.4774 6.50574 15.6957 6.77408C15.9132 7.04158 15.8724 7.43491 15.6049 7.65324L11.9016 10.6632C11.4332 11.0349 10.8732 11.2207 10.3141 11.2207Z" fill="#2F80ED"/>
<g id="Group 5">
<mask id="mask0_2_5608" style="mask-type:luminance" maskUnits="userSpaceOnUse" x="1" y="1" width="19" height="17">
<path id="Clip 4" fill-rule="evenodd" clip-rule="evenodd" d="M1.33334 1.6665H19.2499V17.9165H1.33334V1.6665Z" fill="white"/>
</mask>
<g mask="url(#mask0_2_5608)">
<path id="Fill 3" fill-rule="evenodd" clip-rule="evenodd" d="M6.19909 16.6665H14.3824C14.3841 16.6648 14.3908 16.6665 14.3958 16.6665C15.3466 16.6665 16.1899 16.3265 16.8366 15.6807C17.5874 14.9332 17.9999 13.859 17.9999 12.6565V6.93317C17.9999 4.60567 16.4783 2.9165 14.3824 2.9165H6.20075C4.10492 2.9165 2.58325 4.60567 2.58325 6.93317V12.6565C2.58325 13.859 2.99659 14.9332 3.74659 15.6807C4.39325 16.3265 5.23742 16.6665 6.18742 16.6665H6.19909ZM6.18492 17.9165C4.89909 17.9165 3.75075 17.4498 2.86409 16.5665C1.87659 15.5815 1.33325 14.1932 1.33325 12.6565V6.93317C1.33325 3.93067 3.42575 1.6665 6.20075 1.6665H14.3824C17.1574 1.6665 19.2499 3.93067 19.2499 6.93317V12.6565C19.2499 14.1932 18.7066 15.5815 17.7191 16.5665C16.8333 17.449 15.6841 17.9165 14.3958 17.9165H14.3824H6.20075H6.18492Z" fill="#2F80ED"/>
</g>
</g>
</g>
</g>
</svg>
