<svg width="117" height="20" viewBox="0 0 117 20" fill="none" xmlns="http://www.w3.org/2000/svg">
<rect x="0.5" width="20" height="20" rx="10" fill="#27AE60"/>
<path d="M11.7962 6.22V14.5H10.2962V8.332C10.2962 8.196 10.3002 8.06 10.3082 7.924C10.3242 7.788 10.3442 7.652 10.3682 7.516L8.37619 8.068L8.18419 7.06L10.2962 6.22H11.7962Z" fill="white"/>
<rect x="24.5" width="20" height="20" rx="10" fill="#27AE60"/>
<path d="M34.4085 6.076C34.9605 6.076 35.4365 6.124 35.8365 6.22C36.2365 6.316 36.5445 6.5 36.7605 6.772C36.9845 7.036 37.0965 7.428 37.0965 7.948C37.0965 8.276 37.0565 8.58 36.9765 8.86C36.8965 9.14 36.7525 9.436 36.5445 9.748C36.3365 10.052 36.0485 10.4 35.6805 10.792L33.4245 13.216C33.6245 13.184 33.8325 13.164 34.0485 13.156C34.2725 13.148 34.4885 13.144 34.6965 13.144H37.3605V14.5H31.6485V13.66C31.6485 13.532 31.6645 13.42 31.6965 13.324C31.7285 13.22 31.7845 13.124 31.8645 13.036L34.0605 10.612C34.5645 10.076 34.9445 9.604 35.2005 9.196C35.4565 8.78 35.5805 8.408 35.5725 8.08C35.5645 7.864 35.5085 7.708 35.4045 7.612C35.3005 7.508 35.1525 7.44 34.9605 7.408C34.7685 7.376 34.5325 7.36 34.2525 7.36C33.9885 7.36 33.7365 7.364 33.4965 7.372C33.2565 7.38 33.0005 7.396 32.7285 7.42C32.4645 7.436 32.1525 7.464 31.7925 7.504L31.7205 6.376C32.1045 6.288 32.4485 6.224 32.7525 6.184C33.0565 6.144 33.3405 6.116 33.6045 6.1C33.8685 6.084 34.1365 6.076 34.4085 6.076Z" fill="white"/>
<rect x="48.5" width="20" height="20" rx="10" fill="#27AE60"/>
<path d="M58.3229 6.064C58.9629 6.064 59.4749 6.124 59.8589 6.244C60.2429 6.356 60.5229 6.552 60.6989 6.832C60.8829 7.112 60.9749 7.496 60.9749 7.984C60.9749 8.352 60.9389 8.684 60.8669 8.98C60.7949 9.268 60.6669 9.508 60.4829 9.7C60.3069 9.884 60.0509 10.008 59.7149 10.072V10.12C60.2749 10.208 60.6589 10.428 60.8669 10.78C61.0749 11.132 61.1829 11.604 61.1909 12.196C61.1989 12.764 61.1149 13.232 60.9389 13.6C60.7629 13.96 60.4709 14.228 60.0629 14.404C59.6629 14.572 59.1189 14.656 58.4309 14.656C57.9749 14.656 57.5109 14.632 57.0389 14.584C56.5669 14.544 56.1109 14.496 55.6709 14.44L55.7429 13.312C56.0469 13.328 56.3229 13.344 56.5709 13.36C56.8269 13.376 57.0709 13.388 57.3029 13.396C57.5429 13.404 57.7869 13.408 58.0349 13.408C58.4509 13.408 58.7789 13.368 59.0189 13.288C59.2669 13.208 59.4429 13.064 59.5469 12.856C59.6589 12.648 59.7149 12.368 59.7149 12.016C59.7149 11.736 59.6749 11.5 59.5949 11.308C59.5229 11.108 59.3829 10.956 59.1749 10.852C58.9749 10.74 58.6749 10.688 58.2749 10.696H56.7269V9.652H58.2749C58.5629 9.652 58.7909 9.616 58.9589 9.544C59.1349 9.472 59.2629 9.38 59.3429 9.268C59.4309 9.148 59.4869 9.012 59.5109 8.86C59.5429 8.7 59.5589 8.536 59.5589 8.368C59.5509 8.064 59.5029 7.836 59.4149 7.684C59.3269 7.532 59.1749 7.432 58.9589 7.384C58.7509 7.328 58.4589 7.3 58.0829 7.3C57.6749 7.3 57.2829 7.308 56.9069 7.324C56.5309 7.332 56.1989 7.348 55.9109 7.372L55.8269 6.28C56.2589 6.208 56.6789 6.156 57.0869 6.124C57.5029 6.084 57.9149 6.064 58.3229 6.064Z" fill="white"/>
<rect x="72.5" width="20" height="20" rx="10" fill="#27AE60"/>
<path d="M82.8724 6.22L80.7364 11.044C80.6804 11.18 80.6804 11.288 80.7364 11.368C80.8004 11.44 80.8924 11.476 81.0124 11.476H85.8364V12.424L84.7804 12.568H80.0044C79.7804 12.568 79.5884 12.508 79.4284 12.388C79.2764 12.26 79.1764 12.1 79.1284 11.908C79.0804 11.708 79.1004 11.508 79.1884 11.308L81.4324 6.22H82.8724ZM84.7924 7.816V14.5H83.4004V9.16L83.6524 7.816H84.7924Z" fill="white"/>
<rect x="96.5" width="20" height="20" rx="10" fill="#27AE60"/>
<path d="M108.954 6.22L108.894 7.396H105.438L105.33 9.256L106.41 9.364C106.93 9.404 107.366 9.488 107.718 9.616C108.078 9.744 108.366 9.916 108.582 10.132C108.806 10.348 108.966 10.612 109.062 10.924C109.158 11.228 109.206 11.584 109.206 11.992C109.206 12.336 109.166 12.668 109.086 12.988C109.006 13.308 108.862 13.592 108.654 13.84C108.454 14.088 108.17 14.284 107.802 14.428C107.442 14.572 106.974 14.644 106.398 14.644C106.038 14.644 105.626 14.62 105.162 14.572C104.706 14.532 104.238 14.464 103.758 14.368L103.902 13.204C104.286 13.252 104.666 13.296 105.042 13.336C105.418 13.368 105.746 13.384 106.026 13.384C106.49 13.384 106.842 13.332 107.082 13.228C107.322 13.116 107.486 12.956 107.574 12.748C107.662 12.532 107.71 12.268 107.718 11.956C107.734 11.644 107.698 11.396 107.61 11.212C107.53 11.028 107.398 10.888 107.214 10.792C107.038 10.696 106.798 10.628 106.494 10.588C106.19 10.548 105.822 10.516 105.39 10.492L104.562 10.408C104.41 10.384 104.286 10.32 104.19 10.216C104.102 10.112 104.062 9.984 104.07 9.832L104.274 6.22H108.954Z" fill="white"/>
</svg>
