<svg width="21" height="20" viewBox="0 0 21 20" fill="none" xmlns="http://www.w3.org/2000/svg">
<g id="Iconly/Light-Outline/Time Circle">
<g id="Time Circle">
<path id="Fill 1" fill-rule="evenodd" clip-rule="evenodd" d="M10.5 2.9165C6.59416 2.9165 3.41666 6.094 3.41666 9.99984C3.41666 13.9057 6.59416 17.0832 10.5 17.0832C14.4058 17.0832 17.5833 13.9057 17.5833 9.99984C17.5833 6.094 14.4058 2.9165 10.5 2.9165ZM10.5 18.3332C5.905 18.3332 2.16666 14.5948 2.16666 9.99984C2.16666 5.40484 5.905 1.6665 10.5 1.6665C15.095 1.6665 18.8333 5.40484 18.8333 9.99984C18.8333 14.5948 15.095 18.3332 10.5 18.3332Z" fill="#2F80ED"/>
<path id="Fill 3" fill-rule="evenodd" clip-rule="evenodd" d="M13.3593 13.0768C13.2502 13.0768 13.1402 13.0484 13.0393 12.9893L9.89767 11.1151C9.70933 11.0018 9.59267 10.7976 9.59267 10.5776V6.5376C9.59267 6.1926 9.87267 5.9126 10.2177 5.9126C10.5635 5.9126 10.8427 6.1926 10.8427 6.5376V10.2226L13.6802 11.9143C13.976 12.0918 14.0735 12.4751 13.8968 12.7718C13.7793 12.9676 13.5718 13.0768 13.3593 13.0768Z" fill="#2F80ED"/>
</g>
</g>
</svg>
