<svg width="80" height="80" viewBox="0 0 80 80" fill="none" xmlns="http://www.w3.org/2000/svg">
<rect width="80" height="80" rx="20" fill="white"/>
<path fill-rule="evenodd" clip-rule="evenodd" d="M40.0003 16.3058L61.4338 37.7393L40.0003 59.2064L18.5665 37.7395L40.0003 16.3058ZM27.1735 32.4481H24.5614V35.0602L21.8823 37.7393L24.5614 40.4855V43.0307H27.1065L40.0003 55.8908L52.8602 43.0307H55.4389V40.4186L58.118 37.7395L55.4389 35.0938V32.4481H52.7935L40.0003 19.6213L27.1735 32.4481Z" fill="#33348E"/>
<path fill-rule="evenodd" clip-rule="evenodd" d="M51.5208 32.4815H28.4462L40.0003 20.9274L51.5208 32.4815ZM55.4389 39.1125V36.3999L56.8119 37.7393L55.4389 39.1125ZM28.3789 42.9973H51.5877L40.0003 54.5848L28.3789 42.9973ZM24.5614 36.3663V39.1795L23.1884 37.7393L24.5614 36.3663Z" fill="#33348E"/>
<path fill-rule="evenodd" clip-rule="evenodd" d="M19.6717 39.9832L17.428 37.7392L40.0003 15.1672L62.5723 37.7395L60.3283 39.9835L62.5723 42.2272L40.0003 64.8328L17.428 42.2272L19.6717 39.9832ZM61.7352 40.0168L63.9789 42.2608L40.0003 66.2061L16.0214 42.2608L18.2651 40.0168L16.0214 37.7731L40.0003 13.7939L63.9789 37.7728L61.7352 40.0168Z" fill="#33348E"/>
<path fill-rule="evenodd" clip-rule="evenodd" d="M40.0003 60.2448L59.7257 40.5527L61.4338 42.2269L40.0003 63.694L18.5665 42.2269L20.2746 40.5527L40.0003 60.2448Z" fill="#33348E"/>
<path fill-rule="evenodd" clip-rule="evenodd" d="M53.2288 42.1936H50.5285L50.3786 41.0884H48.8787L48.7288 42.1936H46.0285L47.8287 33.1179H51.1286L53.2288 42.1936ZM50.2584 38.7105L49.5987 36.6007L48.9686 38.7105H50.2584ZM39.2882 42.1936V33.1179H41.7383V35.8306L43.0693 33.1179H45.7313L43.7952 37.572L45.852 42.1936H43.3111L41.7383 39.347V42.1936H39.2882ZM33.7085 42.1936V33.1179H38.3267V35.261H36.3808V36.6677H38.1191V38.5432H36.3808V40.0168H38.4303V42.1936H33.7085ZM28.3159 42.1936L26.2955 33.1179H28.8373L29.8147 37.1366L31.0205 33.1179H33.5292L30.9877 42.1936H28.3159Z" fill="#33348E"/>
</svg>
