<svg width="18" height="18" viewBox="0 0 18 18" fill="none" xmlns="http://www.w3.org/2000/svg">
<g clip-path="url(#clip0_2_5683)">
<path fill-rule="evenodd" clip-rule="evenodd" d="M15.4916 10.3837C16.0886 10.9666 16.7188 11.5151 17.2544 12.1568C17.4909 12.442 17.7149 12.7363 17.8862 13.0673C18.129 13.5377 17.9091 14.0554 17.4873 14.0835L14.865 14.0823C14.1886 14.1385 13.6491 13.8662 13.1954 13.4038C12.8324 13.034 12.4962 12.6404 12.147 12.2581C12.0039 12.1018 11.8541 11.9548 11.6752 11.8386C11.3172 11.6062 11.0065 11.6774 10.8019 12.0507C10.5935 12.4305 10.5463 12.851 10.5258 13.2742C10.4977 13.8917 10.3111 14.054 9.69083 14.0823C8.36525 14.1448 7.10722 13.9442 5.93854 13.2755C4.90819 12.686 4.10921 11.8538 3.41377 10.9116C2.05975 9.07704 1.02284 7.06112 0.0909061 4.98871C-0.118865 4.5218 0.0345452 4.27116 0.549718 4.26229C1.40519 4.24567 2.26053 4.24686 3.11701 4.26111C3.46469 4.26619 3.69487 4.46562 3.82912 4.79408C4.29195 5.93212 4.85828 7.01487 5.56915 8.01848C5.75846 8.28568 5.95149 8.55288 6.22638 8.74094C6.53048 8.94918 6.76201 8.88016 6.90507 8.5414C6.99585 8.32661 7.0356 8.09525 7.05606 7.86519C7.12383 7.07371 7.13276 6.2836 7.01389 5.4949C6.94091 5.00267 6.66366 4.68402 6.1725 4.59088C5.92186 4.54339 5.95918 4.45012 6.08054 4.30706C6.29131 4.06033 6.48955 3.90674 6.88473 3.90674H9.84832C10.3149 3.99882 10.4185 4.20841 10.4824 4.67787L10.4849 7.96981C10.4798 8.15155 10.5757 8.69085 10.903 8.81114C11.165 8.89678 11.3377 8.68719 11.4949 8.52106C12.2045 7.76796 12.7109 6.87796 13.1633 5.95637C13.3641 5.55114 13.5367 5.1303 13.704 4.70981C13.828 4.39778 14.0225 4.24425 14.374 4.25105L17.2263 4.2536C17.3108 4.2536 17.3964 4.25484 17.4783 4.26886C17.959 4.35077 18.0907 4.55752 17.9422 5.02686C17.7083 5.76322 17.2532 6.37686 16.8083 6.99334C16.3326 7.65152 15.8239 8.28716 15.3522 8.94924C14.9188 9.55383 14.9532 9.85858 15.4916 10.3837Z" fill="white"/>
</g>
<defs>
<clipPath id="clip0_2_5683">
<rect width="18" height="18" fill="white"/>
</clipPath>
</defs>
</svg>
