<svg width="15" height="16" viewBox="0 0 15 16" fill="none" xmlns="http://www.w3.org/2000/svg">
<g clip-path="url(#clip0_2_5618)">
<path fill-rule="evenodd" clip-rule="evenodd" d="M12.9096 9.15283C13.4072 9.63862 13.9324 10.0957 14.3786 10.6305C14.5758 10.8681 14.7624 11.1133 14.9052 11.3891C15.1075 11.7812 14.9242 12.2126 14.5727 12.236L12.3875 12.235C11.8239 12.2818 11.3742 12.0549 10.9962 11.6696C10.6936 11.3614 10.4135 11.0334 10.1225 10.7148C10.0033 10.5846 9.87843 10.4621 9.72929 10.3653C9.43098 10.1716 9.17204 10.2309 9.00157 10.542C8.82794 10.8585 8.78857 11.2089 8.77151 11.5616C8.7481 12.0761 8.59256 12.2114 8.07568 12.235C6.97103 12.2871 5.92267 12.12 4.94877 11.5627C4.09015 11.0714 3.42433 10.3779 2.8448 9.59279C1.71645 8.06396 0.852357 6.38402 0.0757436 4.65702C-0.0990658 4.26792 0.0287762 4.05906 0.458087 4.05167C1.17098 4.03782 1.88377 4.0388 2.59749 4.05068C2.88723 4.05492 3.07905 4.2211 3.19092 4.49482C3.57661 5.44319 4.04855 6.34548 4.64095 7.18183C4.7987 7.40449 4.95957 7.62715 5.18864 7.78388C5.44205 7.9574 5.635 7.89989 5.75422 7.61759C5.82987 7.43859 5.86299 7.2458 5.88004 7.05408C5.93652 6.39452 5.94396 5.73609 5.8449 5.07884C5.78408 4.66865 5.55304 4.40311 5.14374 4.32549C4.93487 4.28591 4.96597 4.20819 5.0671 4.08897C5.24275 3.88336 5.40795 3.75537 5.73726 3.75537H8.20692C8.59572 3.83211 8.68206 4.00677 8.73529 4.39798L8.73741 7.14126C8.73317 7.29271 8.81306 7.74213 9.08585 7.84238C9.30417 7.91374 9.44808 7.73908 9.57908 7.60064C10.1704 6.97306 10.5924 6.23139 10.9694 5.4634C11.1367 5.12571 11.2806 4.775 11.42 4.4246C11.5233 4.16457 11.6854 4.03663 11.9783 4.0423L14.3552 4.04442C14.4257 4.04442 14.497 4.04546 14.5653 4.05714C14.9658 4.12539 15.0755 4.29769 14.9518 4.68881C14.7569 5.30244 14.3777 5.81381 14.0069 6.32754C13.6105 6.87602 13.1865 7.40572 12.7935 7.95745C12.4323 8.46128 12.461 8.71524 12.9096 9.15283Z" fill="#2F80ED"/>
</g>
<defs>
<clipPath id="clip0_2_5618">
<rect width="15" height="15" fill="white" transform="translate(0 0.5)"/>
</clipPath>
</defs>
</svg>
