<svg width="25" height="24" viewBox="0 0 25 24" fill="none" xmlns="http://www.w3.org/2000/svg">
<g id="&#208;&#176;&#208;&#186;&#209;&#134;&#208;&#184;&#208;&#184;">
<g id="Group 394">
<path id="Vector (Stroke)" fill-rule="evenodd" clip-rule="evenodd" d="M19.7255 4.77441C19.9858 5.03476 19.9858 5.45687 19.7255 5.71722L6.21674 19.226C5.95639 19.4863 5.53429 19.4863 5.27394 19.226C5.01359 18.9656 5.01359 18.5435 5.27394 18.2832L18.7827 4.77441C19.043 4.51406 19.4651 4.51406 19.7255 4.77441Z" fill="#2F80ED"/>
<path id="Vector (Stroke)_2" fill-rule="evenodd" clip-rule="evenodd" d="M13.7629 16.6315C13.7629 14.7712 15.2711 13.2632 17.1314 13.2632C18.9917 13.2632 20.4998 14.7712 20.4998 16.6315C20.4998 18.4919 18.9917 20 17.1314 20C15.2711 20 13.7629 18.4919 13.7629 16.6315ZM17.1314 14.5965C16.0074 14.5965 15.0963 15.5076 15.0963 16.6315C15.0963 17.7555 16.0074 18.6667 17.1314 18.6667C18.2553 18.6667 19.1665 17.7556 19.1665 16.6315C19.1665 15.5076 18.2553 14.5965 17.1314 14.5965Z" fill="#2F80ED"/>
<path id="Vector (Stroke)_3" fill-rule="evenodd" clip-rule="evenodd" d="M4.5 7.36839C4.5 5.50809 6.00809 4 7.86839 4C9.72869 4 11.2369 5.50807 11.2369 7.36839C11.2369 9.22871 9.72871 10.7369 7.86839 10.7369C6.00807 10.7369 4.5 9.22869 4.5 7.36839ZM7.86839 5.33333C6.74446 5.33333 5.83333 6.24446 5.83333 7.36839C5.83333 8.49235 6.74448 9.40352 7.86839 9.40352C8.99233 9.40352 9.90352 8.49233 9.90352 7.36839C9.90352 6.24448 8.99235 5.33333 7.86839 5.33333Z" fill="#2F80ED"/>
</g>
</g>
</svg>
