<svg width="25" height="24" viewBox="0 0 25 24" fill="none" xmlns="http://www.w3.org/2000/svg">
<g id="&#208;&#186;&#208;&#190;&#208;&#189;&#209;&#130;">
<path id="Vector (Stroke)" fill-rule="evenodd" clip-rule="evenodd" d="M9.6431 9.71431C9.6431 8.13639 10.9223 6.85719 12.5002 6.85719C14.0782 6.85719 15.3574 8.13638 15.3574 9.71431C15.3574 11.2923 14.0782 12.5714 12.5002 12.5714C10.9223 12.5714 9.6431 11.2923 9.6431 9.71431ZM12.5002 8.00005C11.5535 8.00005 10.786 8.76757 10.786 9.71431C10.786 10.6611 11.5535 11.4286 12.5002 11.4286C13.447 11.4286 14.2145 10.6611 14.2145 9.71431C14.2145 8.76759 13.447 8.00005 12.5002 8.00005Z" fill="#2F80ED"/>
<path id="Vector (Stroke)_2" fill-rule="evenodd" clip-rule="evenodd" d="M7.92868 4.57145C7.47402 4.57145 7.03798 4.75206 6.71649 5.07355C6.395 5.39505 6.21439 5.83108 6.21439 6.28574V7.42861C6.21439 7.7442 5.95855 8.00004 5.64296 8.00004H5.07154V9.14287H5.64296C5.95855 9.14287 6.21439 9.39871 6.21439 9.7143C6.21439 10.0299 5.95855 10.2857 5.64296 10.2857H5.07154V11.4286H5.64296C5.95855 11.4286 6.21439 11.6844 6.21439 12C6.21439 12.3156 5.95855 12.5714 5.64296 12.5714H5.07154V13.7143H5.64296C5.95855 13.7143 6.21439 13.9702 6.21439 14.2858C6.21439 14.6013 5.95855 14.8572 5.64296 14.8572H5.07154V16H5.64296C5.95855 16 6.21439 16.2559 6.21439 16.5714V17.7143C6.21439 18.1689 6.39501 18.605 6.71649 18.9265C7.03798 19.248 7.47402 19.4286 7.92868 19.4286H17.0715C17.5262 19.4286 17.9622 19.248 18.2838 18.9265C18.6052 18.605 18.7858 18.1689 18.7858 17.7143V6.28574C18.7858 5.8311 18.6052 5.39508 18.2838 5.07358C17.9622 4.75205 17.5262 4.57145 17.0715 4.57145H7.92868ZM5.07153 17.1429V17.7143C5.07153 18.472 5.37255 19.1988 5.90838 19.7346C6.44419 20.2704 7.17091 20.5714 7.92868 20.5714H17.0715C17.8293 20.5714 18.556 20.2704 19.0918 19.7346C19.6276 19.1988 19.9287 18.472 19.9287 17.7143V6.28574C19.9287 5.52797 19.6277 4.80125 19.0919 4.26544C18.556 3.72965 17.8293 3.42859 17.0715 3.42859H7.92868C7.17092 3.42859 6.44419 3.72961 5.90837 4.26543C5.37256 4.80125 5.07153 5.52797 5.07153 6.28574V6.85718H4.50011C4.18452 6.85718 3.92868 7.11302 3.92868 7.42861V16.5714C3.92868 16.887 4.18452 17.1429 4.50011 17.1429H5.07153Z" fill="#2F80ED"/>
<path id="Vector (Stroke)_3" fill-rule="evenodd" clip-rule="evenodd" d="M9.33683 12.2654C9.87264 11.7296 10.5994 11.4286 11.3571 11.4286H13.6429C14.4006 11.4286 15.1274 11.7296 15.6632 12.2654C16.199 12.8012 16.5 13.528 16.5 14.2857V15.4286C16.5 15.8832 16.3194 16.3193 15.9978 16.6408C15.6763 16.9623 15.2403 17.1429 14.7857 17.1429H10.2143C9.75967 17.1429 9.32367 16.9623 9.0022 16.6408C8.6806 16.3193 8.5 15.8832 8.5 15.4286V14.2857C8.5 13.528 8.80103 12.8012 9.33683 12.2654ZM11.3571 12.5714C10.9025 12.5714 10.4664 12.7521 10.145 13.0735C9.82348 13.395 9.64286 13.8311 9.64286 14.2857V15.4286C9.64286 15.5801 9.70308 15.7255 9.81019 15.8326L9.81032 15.8327C9.91741 15.9398 10.0627 16 10.2143 16H14.7857C14.9373 16 15.0826 15.9398 15.1897 15.8327L15.1898 15.8326C15.2969 15.7255 15.3571 15.5801 15.3571 15.4286V14.2857C15.3571 13.8311 15.1765 13.395 14.855 13.0735C14.5336 12.7521 14.0975 12.5714 13.6429 12.5714H11.3571Z" fill="#2F80ED"/>
</g>
</svg>
