<svg width="24" height="24" viewBox="0 0 24 24" fill="none" xmlns="http://www.w3.org/2000/svg">
<path d="M18.1333 18.9334V5.46286C18.1333 4.65495 17.4784 4 16.6705 4H7.32953C6.52161 4 5.86667 4.65495 5.86667 5.46286V18.9334H4V20H20V18.9334H18.1333ZM17.0667 18.9334H12.5334V16.8H11.4667V18.9334H6.93334V5.06667H17.0667V18.9334Z" fill="#2F80ED"/>
<path d="M8.79999 13.6H9.86666V14.6667H8.79999V13.6ZM11.4666 13.6H12.5334V14.6667H11.4666V13.6ZM14.1333 13.6H15.2V14.6667H14.1333V13.6ZM8.79999 10.4H9.86666V11.4666H8.79999V10.4ZM11.4666 10.4H12.5334V11.4666H11.4666V10.4ZM14.1333 10.4H15.2V11.4666H14.1333V10.4ZM8.79999 7.2H9.86666V8.26667H8.79999V7.2ZM11.4666 7.2H12.5334V8.26667H11.4666V7.2ZM14.1333 7.2H15.2V8.26667H14.1333V7.2Z" fill="#2F80ED"/>
</svg>
